<svg viewBox="0 0 600 600" xmlns="http://www.w3.org/2000/svg" xmlns:xlink="http://www.w3.org/1999/xlink"><defs><linearGradient id="grad-0-22" gradientUnits="userSpaceOnUse" x1="2.8363854938329047" y1="-167.9760545950832" x2="17.099021988744653" y2="167.12756638875715"><stop offset="0%" stop-color="#e3ded3"/><stop offset="100%" stop-color="#1677b4"/></linearGradient><linearGradient id="grad-0-27" gradientUnits="userSpaceOnUse" x1="8.505922502504777" y1="-167.78453230968992" x2="-63.40969898217357" y2="155.57380909070181"><stop offset="0%" stop-color="#e3ded3"/><stop offset="100%" stop-color="#1f8aa8"/></linearGradient><linearGradient id="grad-1-4" gradientUnits="userSpaceOnUse" x1="15.839042140275462" y1="-167.2516808408172" x2="74.89942945024089" y2="-150.37977080720793"><stop offset="0%" stop-color="#da3238"/><stop offset="100%" stop-color="#d63962"/></linearGradient><linearGradient id="grad-1-12" gradientUnits="userSpaceOnUse" x1="24.286762579674054" y1="-166.23523442218422" x2="165.57618279733182" y2="28.434621331478287"><stop offset="0%" stop-color="#da3238"/><stop offset="100%" stop-color="#404b9e"/></linearGradient><linearGradient id="grad-1-16" gradientUnits="userSpaceOnUse" x1="32.67218524957081" y1="-164.79237940820482" x2="132.104336919785" y2="103.7903857155562"><stop offset="0%" stop-color="#da3238"/><stop offset="100%" stop-color="#e3ded3"/></linearGradient><linearGradient id="grad-1-20" gradientUnits="userSpaceOnUse" x1="38.21722699852713" y1="-163.59536533943452" x2="53.574621815496144" y2="159.22864031739567"><stop offset="0%" stop-color="#da3238"/><stop offset="100%" stop-color="#e3ded3"/></linearGradient><linearGradient id="grad-1-28" gradientUnits="userSpaceOnUse" x1="43.71869437806633" y1="-162.2118237425288" x2="-166.6479107219722" y2="21.271432767953897"><stop offset="0%" stop-color="#da3238"/><stop offset="100%" stop-color="#e3ded3"/></linearGradient><linearGradient id="grad-1-29" gradientUnits="userSpaceOnUse" x1="49.17031474648313" y1="-160.64333209857105" x2="-167.41902990562366" y2="13.959528124542397"><stop offset="0%" stop-color="#da3238"/><stop offset="100%" stop-color="#369b90"/></linearGradient><linearGradient id="grad-1-32" gradientUnits="userSpaceOnUse" x1="54.565872296443764" y1="-158.8916787642707" x2="-56.1520343313935" y2="-158.3380846178392"><stop offset="0%" stop-color="#da3238"/><stop offset="100%" stop-color="#77bb52"/></linearGradient><linearGradient id="grad-2-30" gradientUnits="userSpaceOnUse" x1="61.4657826559516" y1="-156.35203088700612" x2="-158.82433842686913" y2="-54.761569766281696"><stop offset="0%" stop-color="#e3ded3"/><stop offset="100%" stop-color="#e3ded3"/></linearGradient><linearGradient id="grad-3-6" gradientUnits="userSpaceOnUse" x1="68.24796510378096" y1="-153.51291561035865" x2="114.79111126181805" y2="-122.66621692738761"><stop offset="0%" stop-color="#e3ded3"/><stop offset="100%" stop-color="#c93d86"/></linearGradient><linearGradient id="grad-4-5" gradientUnits="userSpaceOnUse" x1="79.93380405526442" y1="-147.7653104394079" x2="104.94468503729269" y2="-131.1892262437104"><stop offset="0%" stop-color="#d63962"/><stop offset="100%" stop-color="#e3ded3"/></linearGradient><linearGradient id="grad-4-15" gradientUnits="userSpaceOnUse" x1="87.31271552561364" y1="-143.52870691099835" x2="138.15267728528073" y2="95.59203815647557"><stop offset="0%" stop-color="#d63962"/><stop offset="100%" stop-color="#e3ded3"/></linearGradient><linearGradient id="grad-4-24" gradientUnits="userSpaceOnUse" x1="96.79968438240219" y1="-137.30921711038673" x2="-28.638573279025156" y2="165.54102851118785"><stop offset="0%" stop-color="#d63962"/><stop offset="100%" stop-color="#e3ded3"/></linearGradient><linearGradient id="grad-5-11" gradientUnits="userSpaceOnUse" x1="109.31402615402983" y1="-127.571327836611" x2="166.99528865677334" y2="18.34594141604498"><stop offset="0%" stop-color="#e3ded3"/><stop offset="100%" stop-color="#e3ded3"/></linearGradient><linearGradient id="grad-6-17" gradientUnits="userSpaceOnUse" x1="132.03662219181422" y1="-103.87651515225232" x2="95.94211270341515" y2="137.9097930170486"><stop offset="0%" stop-color="#c93d86"/><stop offset="100%" stop-color="#2b61a9"/></linearGradient><linearGradient id="grad-7-19" gradientUnits="userSpaceOnUse" x1="147.05877193664165" y1="-81.22633560912875" x2="65.74727736700851" y2="154.6004382879481"><stop offset="0%" stop-color="#e3ded3"/><stop offset="100%" stop-color="#e3ded3"/></linearGradient><linearGradient id="grad-7-26" gradientUnits="userSpaceOnUse" x1="150.98269159095514" y1="-73.67650127381539" x2="-48.45975368016658" y2="160.85910690183997"><stop offset="0%" stop-color="#e3ded3"/><stop offset="100%" stop-color="#e3ded3"/></linearGradient><linearGradient id="grad-8-27" gradientUnits="userSpaceOnUse" x1="159.1625208471186" y1="-53.770735140878834" x2="-78.81795627540238" y2="148.3635055145596"><stop offset="0%" stop-color="#88348c"/><stop offset="100%" stop-color="#1f8aa8"/></linearGradient><linearGradient id="grad-8-31" gradientUnits="userSpaceOnUse" x1="163.78440574042943" y1="-37.398775865720246" x2="-156.27619246776422" y2="-61.65834629454728"><stop offset="0%" stop-color="#88348c"/><stop offset="100%" stop-color="#55ab72"/></linearGradient><linearGradient id="grad-9-12" gradientUnits="userSpaceOnUse" x1="165.2639050139738" y1="-30.19671670119517" x2="163.9241649216692" y2="36.78135607523737"><stop offset="0%" stop-color="#e3ded3"/><stop offset="100%" stop-color="#404b9e"/></linearGradient><linearGradient id="grad-9-18" gradientUnits="userSpaceOnUse" x1="166.18918195678313" y1="-24.59991464487692" x2="72.44872015177013" y2="151.57566740202893"><stop offset="0%" stop-color="#e3ded3"/><stop offset="100%" stop-color="#e3ded3"/></linearGradient><linearGradient id="grad-10-14" gradientUnits="userSpaceOnUse" x1="167.1063752655956" y1="-17.30489368918341" x2="143.6929535250957" y2="87.0421455803721"><stop offset="0%" stop-color="#553594"/><stop offset="100%" stop-color="#e3ded3"/></linearGradient><linearGradient id="grad-10-16" gradientUnits="userSpaceOnUse" x1="167.76820895559388" y1="-8.822021527529248" x2="126.67994886170372" y2="110.34577724768688"><stop offset="0%" stop-color="#553594"/><stop offset="100%" stop-color="#e3ded3"/></linearGradient><linearGradient id="grad-10-22" gradientUnits="userSpaceOnUse" x1="167.99970183022168" y1="-0.3165200729893418" x2="11.44676643063454" y2="167.60958068762804"><stop offset="0%" stop-color="#553594"/><stop offset="100%" stop-color="#1677b4"/></linearGradient><linearGradient id="grad-10-27" gradientUnits="userSpaceOnUse" x1="167.9146134563045" y1="5.355612739906246" x2="-93.41803107178339" y2="139.6319142269106"><stop offset="0%" stop-color="#553594"/><stop offset="100%" stop-color="#1f8aa8"/></linearGradient><linearGradient id="grad-10-31" gradientUnits="userSpaceOnUse" x1="167.63807285071294" y1="11.02163921107287" x2="-154.1054118481409" y2="-66.89934259105146"><stop offset="0%" stop-color="#553594"/><stop offset="100%" stop-color="#55ab72"/></linearGradient><linearGradient id="grad-12-16" gradientUnits="userSpaceOnUse" x1="162.58891329635085" y1="42.294742854304076" x2="120.93061513707691" y2="116.61812175887667"><stop offset="0%" stop-color="#404b9e"/><stop offset="100%" stop-color="#e3ded3"/></linearGradient><linearGradient id="grad-12-22" gradientUnits="userSpaceOnUse" x1="160.23898197135046" y1="50.47245443591208" x2="2.9459300477142683" y2="167.97416913369142"><stop offset="0%" stop-color="#404b9e"/><stop offset="100%" stop-color="#1677b4"/></linearGradient><linearGradient id="grad-12-29" gradientUnits="userSpaceOnUse" x1="155.4124894476085" y1="63.80406040133321" x2="-167.97942128353043" y2="2.629453412822587"><stop offset="0%" stop-color="#404b9e"/><stop offset="100%" stop-color="#369b90"/></linearGradient><linearGradient id="grad-12-33" gradientUnits="userSpaceOnUse" x1="150.75238665083742" y1="74.14659748819507" x2="-21.476710413941667" y2="-166.6215799642882"><stop offset="0%" stop-color="#404b9e"/><stop offset="100%" stop-color="#e3ded3"/></linearGradient><linearGradient id="grad-13-27" gradientUnits="userSpaceOnUse" x1="147.36379602188475" y1="80.6716283585521" x2="-98.07898273613404" y2="136.39836196027107"><stop offset="0%" stop-color="#e3ded3"/><stop offset="100%" stop-color="#1f8aa8"/></linearGradient><linearGradient id="grad-16-22" gradientUnits="userSpaceOnUse" x1="116.92445019299312" y1="120.63446003139515" x2="-5.562462915482219" y2="167.9078884576716"><stop offset="0%" stop-color="#e3ded3"/><stop offset="100%" stop-color="#1677b4"/></linearGradient><linearGradient id="grad-19-21" gradientUnits="userSpaceOnUse" x1="60.49022492430244" y1="156.73204104013735" x2="29.99310496015455" y2="165.30097898938516"><stop offset="0%" stop-color="#e3ded3"/><stop offset="100%" stop-color="#e3ded3"/></linearGradient><linearGradient id="grad-20-29" gradientUnits="userSpaceOnUse" x1="42.70696384709565" y1="162.48112271572617" x2="-167.38412826471864" y2="-14.371972900761351"><stop offset="0%" stop-color="#e3ded3"/><stop offset="100%" stop-color="#369b90"/></linearGradient><linearGradient id="grad-21-25" gradientUnits="userSpaceOnUse" x1="24.39516730072101" y1="166.21936052208187" x2="-38.62017740075294" y2="163.50070916523381"><stop offset="0%" stop-color="#e3ded3"/><stop offset="100%" stop-color="#e3ded3"/></linearGradient><linearGradient id="grad-22-32" gradientUnits="userSpaceOnUse" x1="-11.228144416574436" y1="167.62436807624525" x2="-50.77426279846447" y2="-160.1436050464472"><stop offset="0%" stop-color="#1677b4"/><stop offset="100%" stop-color="#77bb52"/></linearGradient><linearGradient id="grad-23-26" gradientUnits="userSpaceOnUse" x1="-18.551649217216053" y1="166.97256155225435" x2="-56.541977405944714" y2="158.19925660705755"><stop offset="0%" stop-color="#e3ded3"/><stop offset="100%" stop-color="#e3ded3"/></linearGradient><linearGradient id="grad-27-31" gradientUnits="userSpaceOnUse" x1="-143.906971904666" y1="86.68785057451632" x2="-115.25251360236331" y2="-122.23280291450844"><stop offset="0%" stop-color="#1f8aa8"/><stop offset="100%" stop-color="#55ab72"/></linearGradient><linearGradient id="grad-29-32" gradientUnits="userSpaceOnUse" x1="-165.07251412942176" y1="-31.22603207248482" x2="-39.85124254073772" y2="-163.20501973885268"><stop offset="0%" stop-color="#369b90"/><stop offset="100%" stop-color="#77bb52"/></linearGradient><linearGradient id="grad-29-33" gradientUnits="userSpaceOnUse" x1="-161.8516665555104" y1="-45.033743273282035" x2="-13.013033130551824" y2="-167.49525655594897"><stop offset="0%" stop-color="#369b90"/><stop offset="100%" stop-color="#e3ded3"/></linearGradient><linearGradient id="grad-32-33" gradientUnits="userSpaceOnUse" x1="-28.746524350047405" y1="-165.52231673642117" x2="-4.515976225821883" y2="-167.93929248013345"><stop offset="0%" stop-color="#77bb52"/><stop offset="100%" stop-color="#e3ded3"/></linearGradient></defs><g transform="translate(300,300)"><path d="M1.0287033112837767e-14,-168A168,168,0,0,1,5.67196243529493,-167.90422520631398Q0,0,19.918240809693838,166.81505832222416A168,168,0,0,1,14.274928846304972,167.39243234517184Q0,0,1.0287033112837767e-14,-168Z" class="chord" fill="url(#grad-0-22)" stroke="url(#grad-0-22)" stroke-width="0.5" stroke-opacity="0.8" fill-opacity="0.7"/><path d="M5.67196243529493,-167.90422520631398A168,168,0,0,1,11.337457834494192,-167.61701002538814Q0,0,-60.774070016441584,156.6221964270603A168,168,0,0,1,-66.02725210364628,154.48107320847282Q0,0,5.67196243529493,-167.90422520631398Z" class="chord" fill="url(#grad-0-27)" stroke="url(#grad-0-27)" stroke-width="0.5" stroke-opacity="0.8" fill-opacity="0.7"/><path d="M13.013033130551618,-167.49525655594897A168,168,0,0,1,18.660536003838043,-166.96042763496223Q0,0,72.34985505946885,-151.62288241843262A168,168,0,0,1,77.42765268427219,-149.09379128522997Q0,0,13.013033130551618,-167.49525655594897Z" class="chord" fill="url(#grad-1-4)" stroke="url(#grad-1-4)" stroke-width="0.5" stroke-opacity="0.8" fill-opacity="0.7"/><path d="M18.660536003838043,-166.96042763496223A168,168,0,0,1,29.885297968898485,-165.32050376559513Q0,0,166.44179041225593,22.828280801730948A168,168,0,0,1,164.52178917351804,34.0085413851356Q0,0,18.660536003838043,-166.96042763496223Z" class="chord" fill="url(#grad-1-12)" stroke="url(#grad-1-12)" stroke-width="0.5" stroke-opacity="0.8" fill-opacity="0.7"/><path d="M29.885297968898485,-165.32050376559513A168,168,0,0,1,35.44975885517986,-164.2172786192415Q0,0,133.837826518619,101.54524209815072A168,168,0,0,1,130.3331890847747,106.00594239471847Q0,0,29.885297968898485,-165.32050376559513Z" class="chord" fill="url(#grad-1-16)" stroke="url(#grad-1-16)" stroke-width="0.5" stroke-opacity="0.8" fill-opacity="0.7"/><path d="M35.44975885517986,-164.2172786192415A168,168,0,0,1,40.97380077312107,-162.92681685408508Q0,0,56.25528217017687,158.3014315410754A168,168,0,0,1,50.87868924637929,160.11045868577844Q0,0,35.44975885517986,-164.2172786192415Z" class="chord" fill="url(#grad-1-20)" stroke="url(#grad-1-20)" stroke-width="0.5" stroke-opacity="0.8" fill-opacity="0.7"/><path d="M40.97380077312107,-162.92681685408508A168,168,0,0,1,46.451125342067314,-161.45058982380817Q0,0,-166.26502718008624,24.081958741040637A168,168,0,0,1,-166.983288886468,18.454843067833952Q0,0,40.97380077312107,-162.92681685408508Z" class="chord" fill="url(#grad-1-28)" stroke="url(#grad-1-28)" stroke-width="0.5" stroke-opacity="0.8" fill-opacity="0.7"/><path d="M46.451125342067314,-161.45058982380817A168,168,0,0,1,51.8754874473693,-159.7902806872115Q0,0,-167.15948514648633,16.784115274914406A168,168,0,0,1,-167.63084946878638,11.130961610439565Q0,0,46.451125342067314,-161.45058982380817Z" class="chord" fill="url(#grad-1-29)" stroke="url(#grad-1-29)" stroke-width="0.5" stroke-opacity="0.8" fill-opacity="0.7"/><path d="M51.8754874473693,-159.7902806872115A168,168,0,0,1,57.240702360913716,-157.9477824891166Q0,0,-58.81729185003849,-157.36748768226363A168,168,0,0,1,-53.47076986990367,-159.26354501115378Q0,0,51.8754874473693,-159.7902806872115Z" class="chord" fill="url(#grad-1-32)" stroke="url(#grad-1-32)" stroke-width="0.5" stroke-opacity="0.8" fill-opacity="0.7"/><path d="M58.81729185003825,-157.36748768226371A168,168,0,0,1,64.09675175883842,-155.29200370259198Q0,0,-159.72625395669252,-52.07229394757032A168,168,0,0,1,-157.87714774116156,-57.43523501401767Q0,0,58.81729185003825,-157.36748768226371Z" class="chord" fill="url(#grad-2-30)" stroke="url(#grad-2-30)" stroke-width="0.5" stroke-opacity="0.8" fill-opacity="0.7"/><path d="M65.64644110311208,-154.6432823322618A168,168,0,0,1,70.8300340430313,-152.3387878298335Q0,0,112.70374579803106,-124.58677972839975A168,168,0,0,1,116.84575387274771,-120.71068636168572Q0,0,65.64644110311208,-154.6432823322618Z" class="chord" fill="url(#grad-3-6)" stroke="url(#grad-3-6)" stroke-width="0.5" stroke-opacity="0.8" fill-opacity="0.7"/><path d="M77.42765268427219,-149.09379128522997A168,168,0,0,1,82.41716914882038,-146.39470697226295Q0,0,102.7148269346623,-132.94233459580275A168,168,0,0,1,107.14462715210064,-129.3987205208666Q0,0,77.42765268427219,-149.09379128522997Z" class="chord" fill="url(#grad-4-5)" stroke="url(#grad-4-5)" stroke-width="0.5" stroke-opacity="0.8" fill-opacity="0.7"/><path d="M82.41716914882038,-146.39470697226295A168,168,0,0,1,92.10871002960178,-140.49905884625255Q0,0,141.3012660077369,90.87327563486846A168,168,0,0,1,134.84657017991773,100.20180891936292Q0,0,82.41716914882038,-146.39470697226295Z" class="chord" fill="url(#grad-4-15)" stroke="url(#grad-4-15)" stroke-width="0.5" stroke-opacity="0.8" fill-opacity="0.7"/><path d="M92.10871002960178,-140.49905884625255A168,168,0,0,1,101.38029004710023,-133.96281868475978Q0,0,-23.033303346508436,166.4135419277762A168,168,0,0,1,-34.211190194312515,164.47976916778725Q0,0,92.10871002960178,-140.49905884625255Z" class="chord" fill="url(#grad-4-24)" stroke="url(#grad-4-24)" stroke-width="0.5" stroke-opacity="0.8" fill-opacity="0.7"/><path d="M107.14462715210064,-129.3987205208666A168,168,0,0,1,111.45226362477638,-125.7075691154409Q0,0,167.2812255156846,15.523903825090875A168,168,0,0,1,166.66174739540867,21.16274923323975Q0,0,107.14462715210064,-129.3987205208666Z" class="chord" fill="url(#grad-5-11)" stroke="url(#grad-5-11)" stroke-width="0.5" stroke-opacity="0.8" fill-opacity="0.7"/><path d="M116.84575387274771,-120.71068636168572A168,168,0,0,1,144.82220185425874,-85.15004315961527Q0,0,113.6394469376384,123.73389228383495A168,168,0,0,1,76.49701734392907,149.5734145410962Q0,0,116.84575387274771,-120.71068636168572Z" class="chord" fill="url(#grad-6-17)" stroke="url(#grad-6-17)" stroke-width="0.5" stroke-opacity="0.8" fill-opacity="0.7"/><path d="M145.66644704450164,-83.69758781130672A168,168,0,0,1,148.40917561639372,-78.73192867485473Q0,0,68.34806364868359,153.46837522915104A168,168,0,0,1,63.12774888082474,155.68843027418424Q0,0,145.66644704450164,-83.69758781130672Z" class="chord" fill="url(#grad-7-19)" stroke="url(#grad-7-19)" stroke-width="0.5" stroke-opacity="0.8" fill-opacity="0.7"/><path d="M148.40917561639372,-78.73192867485473A168,168,0,0,1,153.3840607067394,-68.53706968576405Q0,0,-43.00125347401709,162.4034857989918A168,168,0,0,1,-53.86300123261621,159.1313202930686Q0,0,148.40917561639372,-78.73192867485473Z" class="chord" fill="url(#grad-7-26)" stroke="url(#grad-7-26)" stroke-width="0.5" stroke-opacity="0.8" fill-opacity="0.7"/><path d="M154.0617508416837,-66.99982781765169A168,168,0,0,1,163.1296484233631,-40.15865791171245Q0,0,-66.02725210364628,154.48107320847282A168,168,0,0,1,-91.0472759017246,141.18921187851157Q0,0,154.0617508416837,-66.99982781765169Z" class="chord" fill="url(#grad-8-27)" stroke="url(#grad-8-27)" stroke-width="0.5" stroke-opacity="0.8" fill-opacity="0.7"/><path d="M163.1296484233631,-40.15865791171245A168,168,0,0,1,164.39247396327545,-34.62823276221017Q0,0,-157.2949111719076,-59.01110844088343A168,168,0,0,1,-155.21292499329354,-64.2880075521573Q0,0,163.1296484233631,-40.15865791171245Z" class="chord" fill="url(#grad-8-31)" stroke="url(#grad-8-31)" stroke-width="0.5" stroke-opacity="0.8" fill-opacity="0.7"/><path d="M164.73053096435274,-32.98260402397635A168,168,0,0,1,165.7501682168843,-27.402221371169098Q0,0,164.52178917351804,34.0085413851356A168,168,0,0,1,163.2798117352406,39.54368571218906Q0,0,164.73053096435274,-32.98260402397635Z" class="chord" fill="url(#grad-9-12)" stroke="url(#grad-9-12)" stroke-width="0.5" stroke-opacity="0.8" fill-opacity="0.7"/><path d="M165.7501682168843,-27.402221371169098A168,168,0,0,1,166.5808210865064,-21.790595360048002Q0,0,74.99748330830238,150.33089335669135A168,168,0,0,1,69.87930444833624,152.7772326291347Q0,0,165.7501682168843,-27.402221371169098Z" class="chord" fill="url(#grad-9-18)" stroke="url(#grad-9-18)" stroke-width="0.5" stroke-opacity="0.8" fill-opacity="0.7"/><path d="M166.79039443671326,-20.12372539182568A168,168,0,0,1,167.37472002519326,-14.481128978369393Q0,0,145.14202669843147,84.60373564962607A168,168,0,0,1,142.20291861419028,89.45574289896638Q0,0,166.79039443671326,-20.12372539182568Z" class="chord" fill="url(#grad-10-14)" stroke="url(#grad-10-14)" stroke-width="0.5" stroke-opacity="0.8" fill-opacity="0.7"/><path d="M167.37472002519326,-14.481128978369393A168,168,0,0,1,167.97041258123505,-3.152855418454664Q0,0,130.3331890847747,106.00594239471847A168,168,0,0,1,122.88227118665206,114.55979848101211Q0,0,167.37472002519326,-14.481128978369393Z" class="chord" fill="url(#grad-10-16)" stroke="url(#grad-10-16)" stroke-width="0.5" stroke-opacity="0.8" fill-opacity="0.7"/><path d="M167.97041258123505,-3.152855418454664A168,168,0,0,1,167.98110035437233,2.5199055010630658Q0,0,14.274928846304972,167.39243234517184A168,168,0,0,1,8.615340949997801,167.77894951487593Q0,0,167.97041258123505,-3.152855418454664Z" class="chord" fill="url(#grad-10-22)" stroke="url(#grad-10-22)" stroke-width="0.5" stroke-opacity="0.8" fill-opacity="0.7"/><path d="M167.98110035437233,2.5199055010630658A168,168,0,0,1,167.80026008906214,8.189793284515646Q0,0,-91.0472759017246,141.18921187851157A168,168,0,0,1,-95.76215609207377,138.03481249524447Q0,0,167.98110035437233,2.5199055010630658Z" class="chord" fill="url(#grad-10-27)" stroke="url(#grad-10-27)" stroke-width="0.5" stroke-opacity="0.8" fill-opacity="0.7"/><path d="M167.80026008906214,8.189793284515646A168,168,0,0,1,167.42809797505564,13.850343261275897Q0,0,-155.21292499329354,-64.2880075521573A168,168,0,0,1,-152.9539687448148,-69.49160701271933Q0,0,167.80026008906214,8.189793284515646Z" class="chord" fill="url(#grad-10-31)" stroke="url(#grad-10-31)" stroke-width="0.5" stroke-opacity="0.8" fill-opacity="0.7"/><path d="M163.2798117352406,39.54368571218906A168,168,0,0,1,161.85166655551035,45.03374327328217Q0,0,122.88227118665206,114.55979848101211A168,168,0,0,1,118.94448608099827,118.64320136833464Q0,0,163.2798117352406,39.54368571218906Z" class="chord" fill="url(#grad-12-16)" stroke="url(#grad-12-16)" stroke-width="0.5" stroke-opacity="0.8" fill-opacity="0.7"/><path d="M161.85166655551035,45.03374327328217A168,168,0,0,1,158.4435967272053,55.85361811151311Q0,0,8.615340949997801,167.77894951487593A168,168,0,0,1,-2.7268397336471164,167.9778686168717Q0,0,161.85166655551035,45.03374327328217Z" class="chord" fill="url(#grad-12-22)" stroke="url(#grad-12-22)" stroke-width="0.5" stroke-opacity="0.8" fill-opacity="0.7"/><path d="M158.4435967272053,55.85361811151311A168,168,0,0,1,151.98273490436156,71.59083943487853Q0,0,-167.63084946878638,11.130961610439565A168,168,0,0,1,-167.8971105039461,-5.878799573528334Q0,0,158.4435967272053,55.85361811151311Z" class="chord" fill="url(#grad-12-29)" stroke="url(#grad-12-29)" stroke-width="0.5" stroke-opacity="0.8" fill-opacity="0.7"/><path d="M151.98273490436156,71.59083943487853A168,168,0,0,1,149.4790642670689,76.68121899032046Q0,0,-24.286762579674296,-166.2352344221842A168,168,0,0,1,-18.66053600383829,-166.96042763496223Q0,0,151.98273490436156,71.59083943487853Z" class="chord" fill="url(#grad-12-33)" stroke="url(#grad-12-33)" stroke-width="0.5" stroke-opacity="0.8" fill-opacity="0.7"/><path d="M148.70479096637436,78.1721506909392A168,168,0,0,1,145.98079291351632,83.14810942132758Q0,0,-95.76215609207377,138.03481249524447A168,168,0,0,1,-100.36785055929616,134.72302911568903Q0,0,148.70479096637436,78.1721506909392Z" class="chord" fill="url(#grad-13-27)" stroke="url(#grad-13-27)" stroke-width="0.5" stroke-opacity="0.8" fill-opacity="0.7"/><path d="M118.94448608099827,118.64320136833464A168,168,0,0,1,114.87108331326718,122.59133011121314Q0,0,-2.7268397336471164,167.9778686168717A168,168,0,0,1,-8.396500437473918,167.79004374635434Q0,0,118.94448608099827,118.64320136833464Z" class="chord" fill="url(#grad-16-22)" stroke="url(#grad-16-22)" stroke-width="0.5" stroke-opacity="0.8" fill-opacity="0.7"/><path d="M63.12774888082474,155.68843027418424A168,168,0,0,1,57.835457361478696,157.73097308958876Q0,0,32.77964723324315,164.77103728284328A168,168,0,0,1,27.198012722268537,165.78379928074793Q0,0,63.12774888082474,155.68843027418424Z" class="chord" fill="url(#grad-19-21)" stroke="url(#grad-19-21)" stroke-width="0.5" stroke-opacity="0.8" fill-opacity="0.7"/><path d="M50.87868924637929,160.11045868577844A168,168,0,0,1,34.42569117566579,164.43500779054833Q0,0,-167.8971105039461,-5.878799573528334A168,168,0,0,1,-166.44179041225593,-22.828280801730813Q0,0,50.87868924637929,160.11045868577844Z" class="chord" fill="url(#grad-20-29)" stroke="url(#grad-20-29)" stroke-width="0.5" stroke-opacity="0.8" fill-opacity="0.7"/><path d="M27.198012722268537,165.78379928074793A168,168,0,0,1,21.585367686804094,166.60753855040736Q0,0,-35.854249927577456,164.12943904775526A168,168,0,0,1,-41.37509563838293,162.82537106027016Q0,0,27.198012722268537,165.78379928074793Z" class="chord" fill="url(#grad-21-25)" stroke="url(#grad-21-25)" stroke-width="0.5" stroke-opacity="0.8" fill-opacity="0.7"/><path d="M-8.396500437473918,167.79004374635434A168,168,0,0,1,-14.056587652049727,167.4109086755706Q0,0,-53.47076986990367,-159.26354501115378A168,168,0,0,1,-48.06328179509597,-160.97801384998263Q0,0,-8.396500437473918,167.79004374635434Z" class="chord" fill="url(#grad-22-32)" stroke="url(#grad-22-32)" stroke-width="0.5" stroke-opacity="0.8" fill-opacity="0.7"/><path d="M-15.729966013601082,167.26197466612354A168,168,0,0,1,-21.368044007112204,166.63555051461893Q0,0,-53.86300123261621,159.1313202930686A168,168,0,0,1,-59.20483547756152,157.22209595370134Q0,0,-15.729966013601082,167.26197466612354Z" class="chord" fill="url(#grad-23-26)" stroke="url(#grad-23-26)" stroke-width="0.5" stroke-opacity="0.8" fill-opacity="0.7"/><path d="M-100.36785055929616,134.72302911568903A168,168,0,0,1,-166.01589842423343,25.743377214239214Q0,0,-152.9539687448148,-69.49160701271933A168,168,0,0,1,-60.387999658992236,-156.7714562577817Q0,0,-100.36785055929616,134.72302911568903Z" class="chord" fill="url(#grad-27-31)" stroke="url(#grad-27-31)" stroke-width="0.5" stroke-opacity="0.8" fill-opacity="0.7"/><path d="M-166.44179041225593,-22.828280801730813A168,168,0,0,1,-163.27981173524066,-39.543685712188896Q0,0,-48.06328179509597,-160.97801384998263A168,168,0,0,1,-31.536981200828873,-165.01338981045922Q0,0,-166.44179041225593,-22.828280801730813Z" class="chord" fill="url(#grad-29-32)" stroke="url(#grad-29-32)" stroke-width="0.5" stroke-opacity="0.8" fill-opacity="0.7"/><path d="M-163.27981173524066,-39.543685712188896A168,168,0,0,1,-160.23898197135048,-50.472454435911985Q0,0,-18.66053600383829,-166.96042763496223A168,168,0,0,1,-7.35069310770217,-167.8391113859829Q0,0,-163.27981173524066,-39.543685712188896Z" class="chord" fill="url(#grad-29-33)" stroke="url(#grad-29-33)" stroke-width="0.5" stroke-opacity="0.8" fill-opacity="0.7"/><path d="M-31.536981200828873,-165.01338981045922A168,168,0,0,1,-25.9478728901527,-165.98405915170432Q0,0,-7.35069310770217,-167.8391113859829A168,168,0,0,1,-1.679972000140144,-167.99160006999978Q0,0,-31.536981200828873,-165.01338981045922Z" class="chord" fill="url(#grad-32-33)" stroke="url(#grad-32-33)" stroke-width="0.5" stroke-opacity="0.8" fill-opacity="0.7"/><path d="M1.1430036792041963e-14,-186.66666666666666A186.66666666666666,186.66666666666666,0,0,1,12.597175371660212,-186.24112225043126L11.506170004650356,-170.11131076981354A170.5,170.5,0,0,0,1.0440113962731186e-14,-170.5Z" class="arc" fill="#e3ded3"/><path d="M14.458925700612907,-186.10584061772107A186.66666666666666,186.66666666666666,0,0,1,63.600780401015236,-175.49753609901845L58.09249852699874,-160.29819591901418A170.5,170.5,0,0,0,13.206679456899112,-169.98774549279344Z" class="arc" fill="#da3238"/><path d="M65.35254650004251,-174.8527640914041A186.66666666666666,186.66666666666666,0,0,1,71.21861306537602,-172.54667078065776L65.05057246953542,-157.60289661483293A170.5,170.5,0,0,0,59.69254916923525,-159.7092657727736Z" class="arc" fill="#e3ded3"/><path d="M72.94049011456897,-171.82586925806865A186.66666666666666,186.66666666666666,0,0,1,78.70003782559033,-169.26531981092612L71.88405240676688,-154.60573407730126A170.5,170.5,0,0,0,66.62332266714648,-156.94452165268237Z" class="arc" fill="#e3ded3"/><path d="M80.38872784385427,-168.46986935381403A186.66666666666666,186.66666666666666,0,0,1,112.64476671900026,-148.84757631639977L102.88892531565828,-135.95631301042587A170.5,170.5,0,0,0,73.4264898073776,-153.87917531156407Z" class="arc" fill="#d63962"/><path d="M114.12758548295811,-147.7137051064475A186.66666666666666,186.66666666666666,0,0,1,123.83584847197375,-139.67507679493434L113.11077945252602,-127.57821746537306A170.5,170.5,0,0,0,104.24332138309478,-134.92064314633552Z" class="arc" fill="#e3ded3"/><path d="M125.2263842200345,-138.42975525377747A186.66666666666666,186.66666666666666,0,0,1,160.91355761584302,-94.61115906623918L146.97729414375664,-86.41715689710954A170.5,170.5,0,0,0,114.38088487240653,-126.44074966483426Z" class="arc" fill="#c93d86"/><path d="M161.85160782722403,-92.9973197903408A186.66666666666666,186.66666666666666,0,0,1,170.42673411859934,-76.15229965084895L155.66656161011352,-69.55696655608793A170.5,170.5,0,0,0,147.83410250647339,-84.94308762992735Z" class="arc" fill="#e3ded3"/><path d="M171.1797231574263,-74.4442531307241A186.66666666666666,186.66666666666666,0,0,1,182.6583044036394,-38.47581418023352L166.8387905401099,-35.14353384498116A170.5,170.5,0,0,0,156.35433641968496,-67.99684906493817Z" class="arc" fill="#88348c"/><path d="M183.03392329372528,-36.647337804418164A186.66666666666666,186.66666666666666,0,0,1,185.08980120722933,-24.211772622275554L169.05970235267463,-22.114860171953477A170.5,170.5,0,0,0,167.18187815132228,-33.47341658385695Z" class="arc" fill="#e3ded3"/><path d="M185.32266048523695,-22.359694879806312A186.66666666666666,186.66666666666666,0,0,1,186.03121997228402,15.389270290306552L169.91958752825587,14.056449559806788A170.5,170.5,0,0,0,169.27239435392627,-20.4231855911088Z" class="arc" fill="#553594"/><path d="M185.86802835076068,17.24878202787875A186.66666666666666,186.66666666666666,0,0,1,185.17971932823184,23.514165814710836L169.14183292212607,21.47767109682963A170.5,170.5,0,0,0,169.77052946681087,15.754914298678537Z" class="arc" fill="#e3ded3"/><path d="M184.93532268028434,25.364756446367718A186.66666666666666,186.66666666666666,0,0,1,166.0878491856321,85.2013544336894L151.70345510437647,77.8223085586288A170.5,170.5,0,0,0,168.91860276958116,23.167987361280517Z" class="arc" fill="#404b9e"/><path d="M165.22754551819372,86.85794521215466A186.66666666666666,186.66666666666666,0,0,1,162.20088101501813,92.38678824591953L148.15312614139603,84.38543247819257A170.5,170.5,0,0,0,150.91765987956447,79.3354267428877Z" class="arc" fill="#e3ded3"/><path d="M161.26891855381274,94.00415072180674A186.66666666666666,186.66666666666666,0,0,1,158.00324290465588,99.39526988774041L144.3190334745205,90.78692954924863A170.5,170.5,0,0,0,147.30187828620575,85.86271981107883Z" class="arc" fill="#e3ded3"/><path d="M157.0014066752632,100.97030626096495A186.66666666666666,186.66666666666666,0,0,1,149.82952242213082,111.33534324373656L136.85321556949987,101.69290726637725A170.5,170.5,0,0,0,143.40396341856632,92.2255565222921Z" class="arc" fill="#e3ded3"/><path d="M148.7086961317989,112.82804677572302A186.66666666666666,186.66666666666666,0,0,1,127.6345370147413,136.21258901245903L116.58047443400032,124.41560585691572A170.5,170.5,0,0,0,135.82946084181276,103.05633201032559Z" class="arc" fill="#e3ded3"/><path d="M126.26605215293155,137.4821025375944A186.66666666666666,186.66666666666666,0,0,1,84.99668593769896,166.19268282344024L77.63536581630896,151.79920940033873A170.5,170.5,0,0,0,115.33051013611515,125.57517044282059Z" class="arc" fill="#2b61a9"/><path d="M83.33053700922486,167.03432595187928A186.66666666666666,186.66666666666666,0,0,1,77.6436716092625,169.75248069903853L70.91917505024601,155.0507033527825A170.5,170.5,0,0,0,76.1135172861045,152.5679602221183Z" class="arc" fill="#e3ded3"/><path d="M75.94229294298177,170.5204169212789A186.66666666666666,186.66666666666666,0,0,1,64.26161929053188,175.25663676620974L58.696104048405466,160.0781601891362A170.5,170.5,0,0,0,69.36514792916995,155.75213081291815Z" class="arc" fill="#e3ded3"/><path d="M62.5058690779743,175.89047949008378A186.66666666666666,186.66666666666666,0,0,1,38.25076797296199,182.70556421172034L34.93797824673225,166.881957311241A170.5,170.5,0,0,0,57.092414345328315,160.65710760567472Z" class="arc" fill="#e3ded3"/><path d="M36.42183025915906,183.0789303142703A186.66666666666666,186.66666666666666,0,0,1,23.98374187422677,185.1194872782304L21.906578515476774,169.08681739788366A170.5,170.5,0,0,0,33.267439602785466,167.2229872424094Z" class="arc" fill="#e3ded3"/><path d="M22.1313786774376,185.35006480247128A186.66666666666666,186.66666666666666,0,0,1,-15.618430724499696,186.01212075063398L-14.26576306353856,169.90214243562374A170.5,170.5,0,0,0,20.214643202695235,169.29742526154297Z" class="arc" fill="#1677b4"/><path d="M-17.477740015112314,185.84663851791504A186.66666666666666,186.66666666666666,0,0,1,-23.74227111901356,185.1506116829099L-21.686020852456135,169.11524620680075A170.5,170.5,0,0,0,-15.96404288880348,169.7509921462742Z" class="arc" fill="#e3ded3"/><path d="M-25.592559273898264,184.90393547530687A186.66666666666666,186.66666666666666,0,0,1,-38.01243354923613,182.75529907531916L-34.72028528648978,166.92738478040312A170.5,170.5,0,0,0,-23.37606083678386,168.88993392074906Z" class="arc" fill="#e3ded3"/><path d="M-39.838055475086065,182.36604338639472A186.66666666666666,186.66666666666666,0,0,1,-45.97232848709215,180.91707895585571L-41.99079646633506,165.24836765342894A170.5,170.5,0,0,0,-36.3877953134045,166.57184141453735Z" class="arc" fill="#e3ded3"/><path d="M-47.779170526685654,180.44831755443533A186.66666666666666,186.66666666666666,0,0,1,-65.7831505306239,174.6912177263348L-60.08585981502523,159.5617104768219A170.5,170.5,0,0,0,-43.6411530792852,164.8202043376673Z" class="arc" fill="#e3ded3"/><path d="M-67.52674446271287,174.02466269673366A186.66666666666666,186.66666666666666,0,0,1,-184.46210936025935,28.60375246026579L-168.48637310316548,26.126463184689204A170.5,170.5,0,0,0,-61.67844605835292,158.95288387389155Z" class="arc" fill="#1f8aa8"/><path d="M-184.73891908898472,26.757731934489595A186.66666666666666,186.66666666666666,0,0,1,-185.53698765163108,20.50538118648217L-169.46815925680232,18.729468708724337A170.5,170.5,0,0,0,-168.73920913217086,24.44032122230612Z" class="arc" fill="#e3ded3"/><path d="M-185.73276127387368,18.649016972127114A186.66666666666666,186.66666666666666,0,0,1,-178.04331330150052,-56.08050492879109L-162.62349063163845,-51.22353262692258A170.5,170.5,0,0,0,-169.6469774849757,17.03387889507682Z" class="arc" fill="#369b90"/><path d="M-177.4736155074361,-57.85810438618924A186.66666666666666,186.66666666666666,0,0,1,-175.41905304573507,-63.81692779335297L-160.22651005873837,-58.28992601125008A170.5,170.5,0,0,0,-162.10313273580996,-52.84717927417107Z" class="arc" fill="#e3ded3"/><path d="M-174.77212352434174,-65.56789826764826A186.66666666666666,186.66666666666666,0,0,1,-67.09777739888025,-174.19050695309076L-61.286630606298665,-159.1043648330463A170.5,170.5,0,0,0,-159.63560925482287,-59.88924993553943Z" class="arc" fill="#55ab72"/><path d="M-65.35254650004276,-174.85276409140403A186.66666666666666,186.66666666666666,0,0,1,-28.83096987794744,-184.42673239078258L-26.334001951018067,-168.454060031938A170.5,170.5,0,0,0,-59.69254916923549,-159.7092657727735Z" class="arc" fill="#77bb52"/><path d="M-26.98529175519366,-184.7058160246491A186.66666666666666,186.66666666666666,0,0,1,-1.8666355557112708,-186.65733341111084L-1.7049715834755628,-170.49147507104144A170.5,170.5,0,0,0,-24.648172737109924,-168.7089730296572Z" class="arc" fill="#e3ded3"/><g class="lbl-names" transform="translate(6.6172895078440845,-195.88826274069964) &#10;        rotate(-88.06523048315027)"><text text-anchor="start" dominant-baseline="middle" font-size="7.5pt" font-family="Barlow Condensed" fill="#b3afa6">Art Competitions</text></g><g class="lbl-names" transform="translate(41.358051997709836,-191.58682505578176) &#10;        rotate(-77.81842510377082)"><text text-anchor="start" dominant-baseline="middle" font-size="7.5pt" font-family="Barlow Condensed" fill="#21211f">Athletics</text></g><g class="lbl-names" transform="translate(71.71007976527686,-182.41070270150715) &#10;        rotate(-68.53900448281621)"><text text-anchor="start" dominant-baseline="middle" font-size="7.5pt" font-family="Barlow Condensed" fill="#b3afa6">Beach Volleyball</text></g><g class="lbl-names" transform="translate(79.62262595441112,-179.09840154541843) &#10;        rotate(-66.03127717083566)"><text text-anchor="start" dominant-baseline="middle" font-size="7.5pt" font-family="Barlow Condensed" fill="#b3afa6">Biathlon</text></g><g class="lbl-names" transform="translate(101.86483477988259,-167.4501580628314) &#10;        rotate(-58.68662606673079)"><text text-anchor="start" dominant-baseline="middle" font-size="7.5pt" font-family="Barlow Condensed" fill="#21211f">Bobsleigh</text></g><g class="lbl-names" transform="translate(125.00206501078408,-150.96517394101102) &#10;        rotate(-50.374590204201056)"><text text-anchor="start" dominant-baseline="middle" font-size="7.5pt" font-family="Barlow Condensed" fill="#b3afa6">Boxing</text></g><g class="lbl-names" transform="translate(151.97470150774168,-123.77273569584223) &#10;        rotate(-39.16040006639674)"><text text-anchor="start" dominant-baseline="middle" font-size="7.5pt" font-family="Barlow Condensed" fill="#21211f">Cross Country Skiing</text></g><g class="lbl-names" transform="translate(174.67015198712141,-88.91759108745525) &#10;        rotate(-26.978825170167546)"><text text-anchor="start" dominant-baseline="middle" font-size="7.5pt" font-family="Barlow Condensed" fill="#b3afa6">Cycling</text></g><g class="lbl-names" transform="translate(186.7222696142568,-59.58853941909295) &#10;        rotate(-17.69940454921297)"><text text-anchor="start" dominant-baseline="middle" font-size="7.5pt" font-family="Barlow Condensed" fill="#21211f">Diving</text></g><g class="lbl-names" transform="translate(193.37519625303167,-31.969258266363948) &#10;        rotate(-9.387368686683233)"><text text-anchor="start" dominant-baseline="middle" font-size="7.5pt" font-family="Barlow Condensed" fill="#b3afa6">Equestrianism</text></g><g class="lbl-names" transform="translate(195.96548134477422,-3.678331321530441) &#10;        rotate(-1.0753328241535085)"><text text-anchor="start" dominant-baseline="middle" font-size="7.5pt" font-family="Barlow Condensed" fill="#21211f">Fencing</text></g><g class="lbl-names" transform="translate(194.82783676623555,21.403598318719144) &#10;        rotate(6.269318279951347)"><text text-anchor="start" dominant-baseline="middle" font-size="7.5pt" font-family="Barlow Condensed" fill="#b3afa6">Football</text></g><g class="lbl-names" transform="translate(186.94547896657554,58.88453017523076) &#10;        rotate(17.483508417755665)"><text text-anchor="start" dominant-baseline="middle" font-size="7.5pt" font-family="Barlow Condensed" fill="#21211f">Gymnastics</text></g><g class="lbl-names" transform="translate(171.92442869219886,94.11689975164411) &#10;        rotate(28.697698555559985)"><text text-anchor="start" dominant-baseline="middle" font-size="7.5pt" font-family="Barlow Condensed" fill="#b3afa6">Handball</text></g><g class="lbl-names" transform="translate(167.64177911261163,101.54916984376744) &#10;        rotate(31.205425867540534)"><text text-anchor="start" dominant-baseline="middle" font-size="7.5pt" font-family="Barlow Condensed" fill="#b3afa6">Hockey</text></g><g class="lbl-names" transform="translate(161.17812349949418,111.52404451588816) &#10;        rotate(34.68053793794593)"><text text-anchor="start" dominant-baseline="middle" font-size="7.5pt" font-family="Barlow Condensed" fill="#b3afa6">Luge</text></g><g class="lbl-names" transform="translate(145.59871419586693,131.21362133753593) &#10;        rotate(42.02518904205082)"><text text-anchor="start" dominant-baseline="middle" font-size="7.5pt" font-family="Barlow Condensed" fill="#b3afa6">Modern Pentathlon</text></g><g class="lbl-names" transform="translate(111.932464820651,160.89475851989002) &#10;        rotate(55.17414869670487)"><text text-anchor="start" dominant-baseline="middle" font-size="7.5pt" font-family="Barlow Condensed" fill="#21211f">Nordic Combined</text></g><g class="lbl-names" transform="translate(84.52350684373181,176.83827863570042) &#10;        rotate(64.45356931765946)"><text text-anchor="start" dominant-baseline="middle" font-size="7.5pt" font-family="Barlow Condensed" fill="#b3afa6">Polo</text></g><g class="lbl-names" transform="translate(73.6490403609622,181.6365019865483) &#10;        rotate(67.92868138806486)"><text text-anchor="start" dominant-baseline="middle" font-size="7.5pt" font-family="Barlow Condensed" fill="#b3afa6">Rowing</text></g><g class="lbl-names" transform="translate(53.01809993237884,188.6930869946228) &#10;        rotate(74.3059477337449)"><text text-anchor="start" dominant-baseline="middle" font-size="7.5pt" font-family="Barlow Condensed" fill="#b3afa6">Rugby</text></g><g class="lbl-names" transform="translate(31.731014842646626,193.41443249420593) &#10;        rotate(80.6832140794249)"><text text-anchor="start" dominant-baseline="middle" font-size="7.5pt" font-family="Barlow Condensed" fill="#b3afa6">Sailing</text></g><g class="lbl-names" transform="translate(3.4369183889999797,195.96986398930667) &#10;        rotate(88.99524994195463)"><text text-anchor="start" dominant-baseline="middle" font-size="7.5pt" font-family="Barlow Condensed" fill="#21211f">Shooting</text></g><g class="lbl-names" transform="translate(-21.643590753418728,194.8013218109634) &#10;        rotate(-83.66009895394048)"><text text-anchor="end" dominant-baseline="middle" font-size="7.5pt" font-family="Barlow Condensed" fill="#b3afa6">Short Track Speed Skating</text></g><g class="lbl-names" transform="translate(-33.41166882552935,193.13119992971914) &#10;        rotate(-80.18498688353506)"><text text-anchor="end" dominant-baseline="middle" font-size="7.5pt" font-family="Barlow Condensed" fill="#b3afa6">Skeleton</text></g><g class="lbl-names" transform="translate(-45.056873634211755,190.75082735943946) &#10;        rotate(-76.70987481312967)"><text text-anchor="end" dominant-baseline="middle" font-size="7.5pt" font-family="Barlow Condensed" fill="#b3afa6">Ski Jumping</text></g><g class="lbl-names" transform="translate(-59.69678241118916,186.68769153254624) &#10;        rotate(-72.2673779842994)"><text text-anchor="end" dominant-baseline="middle" font-size="7.5pt" font-family="Barlow Condensed" fill="#b3afa6">Speed Skating</text></g><g class="lbl-names" transform="translate(-152.7430849518911,122.82324698272468) &#10;        rotate(-38.8033384027232)"><text text-anchor="end" dominant-baseline="middle" font-size="7.5pt" font-family="Barlow Condensed" fill="#21211f">Swimming</text></g><g class="lbl-names" transform="translate(-194.42256250896756,24.81667156261288) &#10;        rotate(-7.2740683379967415)"><text text-anchor="end" dominant-baseline="middle" font-size="7.5pt" font-family="Barlow Condensed" fill="#b3afa6">Tennis</text></g><g class="lbl-names" transform="translate(-194.97056258535633,-20.061897346703006) &#10;        rotate(5.874891316657263)"><text text-anchor="end" dominant-baseline="middle" font-size="7.5pt" font-family="Barlow Condensed" fill="#21211f">Tug-Of-War</text></g><g class="lbl-names" transform="translate(-185.295061498014,-63.88849806066198) &#10;        rotate(19.02385097131132)"><text text-anchor="end" dominant-baseline="middle" font-size="7.5pt" font-family="Barlow Condensed" fill="#b3afa6">Volleyball</text></g><g class="lbl-names" transform="translate(-139.19919351372832,-137.98400097521312) &#10;        rotate(44.748812485488614)"><text text-anchor="end" dominant-baseline="middle" font-size="7.5pt" font-family="Barlow Condensed" fill="#21211f">Water Polo</text></g><g class="lbl-names" transform="translate(-49.70115863342244,-189.59376263605134) &#10;        rotate(75.31069779179022)"><text text-anchor="end" dominant-baseline="middle" font-size="7.5pt" font-family="Barlow Condensed" fill="#21211f">Weightlifting</text></g><g class="lbl-names" transform="translate(-15.181871985643795,-195.41113264860712) &#10;        rotate(85.55750317116967)"><text text-anchor="end" dominant-baseline="middle" font-size="7.5pt" font-family="Barlow Condensed" fill="#b3afa6">Wrestling</text></g><g class="lbl-values" transform="translate(6.018582361896286,-178.16503896892203) &#10;        rotate(-88.06523048315027)"><text text-anchor="middle" dominant-baseline="middle" font-size="7.5pt" font-family="Barlow Condensed" fill="#b3afa6"/></g><g class="lbl-values" transform="translate(37.61613300744085,-174.25277897930627) &#10;        rotate(-77.81842510377082)"><text text-anchor="middle" dominant-baseline="middle" font-size="7.5pt" font-family="Barlow Condensed" fill="white">8</text></g><g class="lbl-values" transform="translate(65.22202492937086,-165.90687721898982) &#10;        rotate(-68.53900448281621)"><text text-anchor="middle" dominant-baseline="middle" font-size="7.5pt" font-family="Barlow Condensed" fill="#b3afa6"/></g><g class="lbl-values" transform="translate(72.41867408234535,-162.8942604532139) &#10;        rotate(-66.03127717083566)"><text text-anchor="middle" dominant-baseline="middle" font-size="7.5pt" font-family="Barlow Condensed" fill="#b3afa6"/></g><g class="lbl-values" transform="translate(92.64849258551224,-152.29990566667047) &#10;        rotate(-58.68662606673079)"><text text-anchor="middle" dominant-baseline="middle" font-size="7.5pt" font-family="Barlow Condensed" fill="white">6</text></g><g class="lbl-values" transform="translate(113.69235436695122,-137.30642010825287) &#10;        rotate(-50.374590204201056)"><text text-anchor="middle" dominant-baseline="middle" font-size="7.5pt" font-family="Barlow Condensed" fill="#b3afa6"/></g><g class="lbl-values" transform="translate(138.22460946656506,-112.57425008526602) &#10;        rotate(-39.16040006639674)"><text text-anchor="middle" dominant-baseline="middle" font-size="7.5pt" font-family="Barlow Condensed" fill="white">9</text></g><g class="lbl-values" transform="translate(158.86666204542948,-80.87266617954262) &#10;        rotate(-26.978825170167546)"><text text-anchor="middle" dominant-baseline="middle" font-size="7.5pt" font-family="Barlow Condensed" fill="#b3afa6">3</text></g><g class="lbl-values" transform="translate(169.82834998249066,-54.19719537641311) &#10;        rotate(-17.69940454921297)"><text text-anchor="middle" dominant-baseline="middle" font-size="7.5pt" font-family="Barlow Condensed" fill="white">6</text></g><g class="lbl-values" transform="translate(175.87934516347167,-29.076801566073872) &#10;        rotate(-9.387368686683233)"><text text-anchor="middle" dominant-baseline="middle" font-size="7.5pt" font-family="Barlow Condensed" fill="#b3afa6"/></g><g class="lbl-values" transform="translate(178.23527112786604,-3.345529916249115) &#10;        rotate(-1.0753328241535085)"><text text-anchor="middle" dominant-baseline="middle" font-size="7.5pt" font-family="Barlow Condensed" fill="white">6</text></g><g class="lbl-values" transform="translate(177.20055629690947,19.467082280358838) &#10;        rotate(6.269318279951347)"><text text-anchor="middle" dominant-baseline="middle" font-size="7.5pt" font-family="Barlow Condensed" fill="#b3afa6"/></g><g class="lbl-values" transform="translate(170.031364202933,53.55688220699559) &#10;        rotate(17.483508417755665)"><text text-anchor="middle" dominant-baseline="middle" font-size="7.5pt" font-family="Barlow Condensed" fill="white">10</text></g><g class="lbl-values" transform="translate(156.36936133433323,85.60156120268583) &#10;        rotate(28.697698555559985)"><text text-anchor="middle" dominant-baseline="middle" font-size="7.5pt" font-family="Barlow Condensed" fill="#b3afa6"/></g><g class="lbl-values" transform="translate(152.47418957385153,92.36138781028372) &#10;        rotate(31.205425867540534)"><text text-anchor="middle" dominant-baseline="middle" font-size="7.5pt" font-family="Barlow Condensed" fill="#b3afa6"/></g><g class="lbl-values" transform="translate(146.59534089715896,101.4337738215935) &#10;        rotate(34.68053793794593)"><text text-anchor="middle" dominant-baseline="middle" font-size="7.5pt" font-family="Barlow Condensed" fill="#b3afa6"/></g><g class="lbl-values" transform="translate(132.42549719719324,119.34191274033027) &#10;        rotate(42.02518904205082)"><text text-anchor="middle" dominant-baseline="middle" font-size="7.5pt" font-family="Barlow Condensed" fill="#b3afa6">5</text></g><g class="lbl-values" transform="translate(101.80524181306828,146.33761370142378) &#10;        rotate(55.17414869670487)"><text text-anchor="middle" dominant-baseline="middle" font-size="7.5pt" font-family="Barlow Condensed" fill="white">8</text></g><g class="lbl-values" transform="translate(76.87614193882274,160.83862485437513) &#10;        rotate(64.45356931765946)"><text text-anchor="middle" dominant-baseline="middle" font-size="7.5pt" font-family="Barlow Condensed" fill="#b3afa6"/></g><g class="lbl-values" transform="translate(66.98555575687513,165.20272323538438) &#10;        rotate(67.92868138806486)"><text text-anchor="middle" dominant-baseline="middle" font-size="7.5pt" font-family="Barlow Condensed" fill="#b3afa6"/></g><g class="lbl-values" transform="translate(48.22122422421123,171.6208553141569) &#10;        rotate(74.3059477337449)"><text text-anchor="middle" dominant-baseline="middle" font-size="7.5pt" font-family="Barlow Condensed" fill="#b3afa6">4</text></g><g class="lbl-values" transform="translate(28.8601134997405,175.91503145901586) &#10;        rotate(80.6832140794249)"><text text-anchor="middle" dominant-baseline="middle" font-size="7.5pt" font-family="Barlow Condensed" fill="#b3afa6"/></g><g class="lbl-values" transform="translate(3.1259591061856957,178.239257247417) &#10;        rotate(88.99524994195463)"><text text-anchor="middle" dominant-baseline="middle" font-size="7.5pt" font-family="Barlow Condensed" fill="white">6</text></g><g class="lbl-values" transform="translate(-19.6853611138237,177.176440313781) &#10;        rotate(-83.66009895394048)"><text text-anchor="middle" dominant-baseline="middle" font-size="7.5pt" font-family="Barlow Condensed" fill="#b3afa6"/></g><g class="lbl-values" transform="translate(-30.388708312743358,175.65742469798263) &#10;        rotate(-80.18498688353506)"><text text-anchor="middle" dominant-baseline="middle" font-size="7.5pt" font-family="Barlow Condensed" fill="#b3afa6"/></g><g class="lbl-values" transform="translate(-40.98029935302117,173.49241916977587) &#10;        rotate(-76.70987481312967)"><text text-anchor="middle" dominant-baseline="middle" font-size="7.5pt" font-family="Barlow Condensed" fill="#b3afa6"/></g><g class="lbl-values" transform="translate(-54.29564495493871,169.79690039388728) &#10;        rotate(-72.2673779842994)"><text text-anchor="middle" dominant-baseline="middle" font-size="7.5pt" font-family="Barlow Condensed" fill="#b3afa6">3</text></g><g class="lbl-values" transform="translate(-138.92347250386283,111.71066749381148) &#10;        rotate(-38.8033384027232)"><text text-anchor="middle" dominant-baseline="middle" font-size="7.5pt" font-family="Barlow Condensed" fill="white">31</text></g><g class="lbl-values" transform="translate(-176.83194971053715,22.571353659328853) &#10;        rotate(-7.2740683379967415)"><text text-anchor="middle" dominant-baseline="middle" font-size="7.5pt" font-family="Barlow Condensed" fill="#b3afa6"/></g><g class="lbl-values" transform="translate(-177.3303688276336,-18.246773301048922) &#10;        rotate(5.874891316657263)"><text text-anchor="middle" dominant-baseline="middle" font-size="7.5pt" font-family="Barlow Condensed" fill="white">12</text></g><g class="lbl-values" transform="translate(-168.53027021962225,-58.108110140887796) &#10;        rotate(19.02385097131132)"><text text-anchor="middle" dominant-baseline="middle" font-size="7.5pt" font-family="Barlow Condensed" fill="#b3afa6"/></g><g class="lbl-values" transform="translate(-126.60498076724812,-125.49973422031287) &#10;        rotate(44.748812485488614)"><text text-anchor="middle" dominant-baseline="middle" font-size="7.5pt" font-family="Barlow Condensed" fill="white">25</text></g><g class="lbl-values" transform="translate(-45.204387138017545,-172.4400412546943) &#10;        rotate(75.31069779179022)"><text text-anchor="middle" dominant-baseline="middle" font-size="7.5pt" font-family="Barlow Condensed" fill="white">6</text></g><g class="lbl-values" transform="translate(-13.808274044085545,-177.7310777899236) &#10;        rotate(85.55750317116967)"><text text-anchor="middle" dominant-baseline="middle" font-size="7.5pt" font-family="Barlow Condensed" fill="#b3afa6">4</text></g></g></svg>